<svg id="Capa_1" data-name="Capa 1" xmlns="http://www.w3.org/2000/svg" viewBox="0 0 384 384"><defs><style>.cls-1{fill:#ced2de;}.cls-2{fill:#858fae;}.cls-3{fill:#fd5c7c;}.cls-4{fill:#070405;}.cls-5{fill:#010101;}</style></defs><path d="M0,159.75V80.25l1.88-2.69c3.16-3.48,6.5-6.83,9.86-10.17,2.3-2.29,4.36-4.9,8.56-6A8.72,8.72,0,0,1,26.25,63l2.12,3.28c.76,4.42-1.06,7.49-4,10.23-3.25,3.07-6.35,6.31-9.34,9.29v64.05H30c0-16.51,0-32.87,0-49.23,0-3.16-.45-6.37,1-9.61L90.41,31.58C94.34,29.28,97.7,30,101,30q92.23-.06,184.46,0c2.67,0,5.31-.09,7.79,1.12q28.63,28.62,57.31,57.21A11.29,11.29,0,0,1,354,97c-.09,16.37,0,32.74,0,49.11v3.67h14.88V86.16l-71.1-71.11h-212c-3.15,3.15-6.32,6.17-9.31,9.36-2.83,3-6,4.79-10.26,4L63,26.25a9.38,9.38,0,0,1-1.32-7.12c.86-3,3.14-4.82,5.18-6.86,2.9-2.91,5.79-5.84,8.73-8.72C76.84,2.32,78.19,1.18,79.5,0H303.75c1.45,1.53,3.62,2,5,3.78a56.2,56.2,0,0,0,4.72,4.8q31,31,62,62a54.77,54.77,0,0,0,4.8,4.72c1.75,1.37,2.25,3.54,3.78,5v79.5c-1.45.65-1,2.56-2.23,3.36l-3.86,2H354.06V378l-1.9,3.68c-1.15,1.36-2.85,1-3.41,2.35H35.25c-.65-1.45-2.56-1-3.36-2.23L29.94,378V165.09H6.08l-3.73-1.93C1,162,1.39,160.31,0,159.75Zm45.07-9.88H338.93v-52L286.05,45H98.31L45.07,98.23Zm.06,15.19V368.93H67.39V201.1l1.89-3.65C72,195.19,74.59,195,77.44,195q114.56.07,229.1,0h4l4,2.06c.68,1.31,1.26,2.45,2.07,4V368.81h22.29V165.06Zm256.3,45.07H82.57v28.24H301.43ZM82.63,253.56v28.32c15.06.58,215.42.33,218.74-.24V253.56Zm-.06,71.82H301.35c.44-8.87.29-25.38-.22-28.26H82.57Zm218.86,15.24H82.63c-.44,10.11-.29,25.41.25,28.26H301.43Z"/><path class="cls-1" d="M45.07,149.87V98.23L98.31,45H286.05l52.88,52.89v52Zm110.44-26.12a16.57,16.57,0,0,0,5.25-5c1.82-2.62,2.93-5.61,4.88-8.15a43.88,43.88,0,0,0,3.19-5.52h46.34l9.75,16.68,3.77,1.94c7.68,0,15.43,0,23.17,0a7.27,7.27,0,0,0,6.85-4.09c.27-.51.45-1.06.78-1.88V114.4c-.26-.3-.63-.55-.72-.87-1-3.78-4-4.69-7.33-4.75-5.48-.1-11,0-16.5,0-1.84-3.2-4-6.08-5.57-9.41a3.36,3.36,0,0,1,0-3.62c1.86-3.1,3.58-6.28,5.35-9.42h18.75l4-2.08,2-3.91c0-.11,0-.6,0-1.09a7.7,7.7,0,0,0-7.94-8c-7.74.14-15.48,0-22.9,0l-3.73,1.92c-3.39,5.81-6.63,11.34-9.77,16.73H168.89c-2.31-3.88-4.71-7.62-6.82-11.52-1.63-3-3.48-5.67-6.69-7.13-7.75,0-15.5,0-23.24,0a7.27,7.27,0,0,0-6.85,4.09c-.27.51-.45,1.06-.78,1.88V80.6c.26.3.63.55.72.87,1,3.78,4,4.69,7.33,4.75,5.48.1,11,0,16.5,0,1.84,3.2,4,6.08,5.57,9.4a3.38,3.38,0,0,1,0,3.63c-1.86,3.1-3.58,6.28-5.35,9.42H130.54l-4,2.08c-.66,1.31-1.25,2.44-2,3.91,0,.11,0,.6,0,1.09a7.71,7.71,0,0,0,7.94,8C140.18,123.65,147.92,123.75,155.51,123.75Z"/><path class="cls-2" d="M45.13,165.06H338.88V368.81H316.59V201.09c-.81-1.58-1.39-2.72-2.07-4l-4-2.06h-4Q192,195,77.44,195c-2.85,0-5.49.23-8.16,2.49l-1.89,3.65V368.93H45.13Z"/><path class="cls-3" d="M26.25,63c1,.26,1.55-.41,2.16-1q4.82-4.84,9.67-9.66A17.84,17.84,0,0,1,39.75,51c.37,0,.89-.16,1.1,0a6.94,6.94,0,0,0,5.78,1.43l3.86-2,2-3.91c0-2,.24-4.09-1.46-5.72-.19-.18,0-.73,0-1.1,3.66-3.78,7.3-7.57,11-11.33.6-.63,1.28-1.16,1-2.17l3.25,2.12c4.25.83,7.43-.95,10.26-4,3-3.19,6.16-6.21,9.31-9.36h212l71.1,71.11v63.66H354v-3.67c0-16.37-.05-32.74,0-49.11a11.29,11.29,0,0,0-3.5-8.72q-28.76-28.5-57.31-57.21c-2.48-1.21-5.12-1.13-7.79-1.12Q193.21,30,101,30c-3.28,0-6.64-.75-10.57,1.55L31,91c-1.42,3.24-1,6.45-1,9.61,0,16.36,0,32.72,0,49.23H15.07v-64c3-3,6.09-6.22,9.34-9.29,2.9-2.74,4.72-5.81,4-10.23Z"/><path class="cls-1" d="M301.43,210.13v28.24H82.57V210.13Z"/><path class="cls-1" d="M82.63,253.56H301.37v28.08c-3.32.57-203.68.82-218.74.24Z"/><path class="cls-1" d="M82.57,325.38V297.12H301.13c.51,2.88.66,19.39.22,28.26Z"/><path class="cls-1" d="M301.43,340.62v28.26H82.88c-.54-2.85-.69-18.15-.25-28.26Z"/><path class="cls-4" d="M51,39.75c0,.37-.16.92,0,1.1,1.7,1.63,1.5,3.71,1.46,5.72l-2,3.91-3.86,2A6.94,6.94,0,0,1,40.85,51c-.21-.19-.73,0-1.1,0-1.1-2.44-3-4.65-2.1-7.85l1.86-3.63,3.78-1.93C46.11,36.75,48.49,38.49,51,39.75Z"/><path class="cls-5" d="M155.51,123.75c-7.59,0-15.33-.1-23.07,0a7.71,7.71,0,0,1-7.94-8c0-.49,0-1,0-1.09.75-1.47,1.34-2.6,2-3.91l4-2.08h18.75c1.77-3.14,3.49-6.32,5.35-9.42a3.38,3.38,0,0,0,0-3.63c-1.54-3.32-3.73-6.2-5.57-9.4-5.54,0-11,.07-16.5,0-3.35-.06-6.3-1-7.33-4.75-.09-.32-.46-.57-.72-.87V77.23c.33-.82.51-1.37.78-1.88a7.27,7.27,0,0,1,6.85-4.09c7.74,0,15.49,0,23.24,0,3.21,1.46,5.06,4.12,6.69,7.13,2.11,3.9,4.51,7.64,6.82,11.52h46.27c3.14-5.39,6.38-10.92,9.77-16.73l3.73-1.92c7.42,0,15.16.1,22.9,0a7.7,7.7,0,0,1,7.94,8c0,.49,0,1,0,1.09l-2,3.91-4,2.08H234.71c-1.77,3.14-3.49,6.32-5.35,9.42a3.36,3.36,0,0,0,0,3.62c1.54,3.33,3.73,6.21,5.57,9.41,5.54,0,11-.07,16.5,0,3.35.06,6.3,1,7.33,4.75.09.32.46.57.72.87v3.37c-.33.82-.51,1.37-.78,1.88a7.27,7.27,0,0,1-6.85,4.09c-7.74,0-15.49,0-23.17,0l-3.77-1.94-9.75-16.68H168.83a43.88,43.88,0,0,1-3.19,5.52c-1.95,2.54-3.06,5.53-4.88,8.15A16.57,16.57,0,0,1,155.51,123.75Z"/></svg>